<svg width="48" height="48" xmlns="http://www.w3.org/2000/svg">
 <title/>

 <desc/>
 <g>
  <title>background</title>
  <rect fill="none" id="canvas_background" height="402" width="582" y="-1" x="-1"/>
 </g>
 <g>
  <title>Layer 1</title>
  <path id="arrow2" fill="#f9f9f9" d="m37.539597,24.98053c1.414001,-0.002014 2.459,-1.107056 2.460999,-2.504028c0,-1.393982 -1.17099,-2.473022 -2.585999,-2.471008l-20.699997,0.026001l5.763,-5.71698c1,-0.98999 1.003006,-2.590027 0.003998,-3.575989c-0.998001,-0.987 -2.618996,-0.985046 -3.618996,0.003967l-9.968002,9.843018l-0.069,0.070984c-0.506996,0.463013 -0.825012,1.125 -0.825012,1.856995c-0.001991,0.734985 0.313011,1.397034 0.820015,1.858032l0.07,0.067993l9.945,9.82196c0.998001,0.987 2.619003,0.985046 3.619995,-0.005981c1.001007,-0.986023 1.001999,-2.586975 0.003998,-3.573975l-5.620995,-5.67804l20.700996,-0.022949z"/>
 </g>
</svg>